<svg id="e08zzkjlq7fbk1" xmlns="http://www.w3.org/2000/svg" xmlns:xlink="http://www.w3.org/1999/xlink" viewBox="0 0 512.209000 512.209000" shape-rendering="geometricPrecision" text-rendering="geometricPrecision"><style><![CDATA[#e08zzkjlq7fbk2_to {animation: e08zzkjlq7fbk2_to__to 3000ms linear 1 normal forwards}@keyframes e08zzkjlq7fbk2_to__to { 0% {transform: translate(188.125458px,291.623157px)} 33.333333% {transform: translate(256.105904px,95.711752px)} 100% {transform: translate(256.105904px,95.711752px)} }#e08zzkjlq7fbk4_to {animation: e08zzkjlq7fbk4_to__to 3000ms linear 1 normal forwards}@keyframes e08zzkjlq7fbk4_to__to { 0% {transform: translate(209.872212px,251.630855px)} 66.666667% {transform: translate(209.872212px,251.630855px)} 100% {transform: translate(263.632591px,93.063107px)} }#e08zzkjlq7fbk5_to {animation: e08zzkjlq7fbk5_to__to 3000ms linear 1 normal forwards}@keyframes e08zzkjlq7fbk5_to__to { 0% {transform: translate(271.975866px,217.644378px)} 33.333333% {transform: translate(271.975866px,217.644378px)} 66.666667% {transform: translate(303.885731px,160.523975px)} 100% {transform: translate(303.885731px,160.523975px)} }]]></style><g id="e08zzkjlq7fbk2_to" transform="translate(188.125458,291.623157)"><path id="e08zzkjlq7fbk2" d="M418.532000,101.727000L144.877000,1.975000C128.105000,-4.204000,109.567000,4.623000,103.387000,21.396000L73.374000,106.140000L201.374000,106.140000L201.374000,106.140000L236.684000,106.140000L300.243000,194.416000L435.305000,194.416000L446.781000,162.637000C455.608000,137.920000,443.250000,110.554000,418.532000,101.727000" transform="translate(-261.499458,-97.208091)" fill="rgb(239,234,221)" stroke="none" stroke-width="1"/></g><g id="e08zzkjlq7fbk3"><g id="e08zzkjlq7fbk4_to" transform="translate(209.872212,251.630855)"><path id="e08zzkjlq7fbk4" d="M407.056000,152.927000C406.173000,152.927000,405.290000,152.927000,404.408000,152.044000L137.815000,55.823000C133.401000,54.057000,130.753000,48.761000,132.518000,44.347000C134.283000,39.933000,139.580000,37.285000,143.994000,39.050000L409.704000,135.271000C414.118000,137.037000,416.766000,142.333000,415.001000,146.747000C414.118000,151.161000,410.587000,152.927000,407.056000,152.927000" transform="translate(-273.759506,-95.712109)" fill="rgb(212,208,186)" stroke="none" stroke-width="1"/></g><g id="e08zzkjlq7fbk5_to" transform="translate(271.975866,217.644378)"><path id="e08zzkjlq7fbk5" d="M335.553000,174.113000C334.670000,174.113000,333.787000,174.113000,332.905000,173.230000L255.222000,144.982000C250.808000,143.216000,248.160000,137.920000,249.925000,133.506000C251.691000,129.092000,256.987000,126.444000,261.401000,128.209000L339.084000,156.457000C343.498000,158.223000,346.146000,163.519000,344.381000,167.933000C342.615000,171.465000,339.084000,174.113000,335.553000,174.113000" transform="translate(-297.153000,-150.884621)" fill="rgb(212,208,186)" stroke="none" stroke-width="1"/></g></g><path id="e08zzkjlq7fbk6" d="M0.105000,220.899000L0.105000,485.727000C0.105000,500.734000,11.581000,512.210000,26.588000,512.210000L485.622000,512.210000C500.629000,512.210000,512.105000,500.734000,512.105000,485.727000L512.105000,220.899000C512.105000,205.892000,500.629000,194.416000,485.622000,194.416000L26.587000,194.416000C11.581000,194.416000,0.105000,205.892000,0.105000,220.899000" fill="rgb(251,193,118)" stroke="none" stroke-width="1"/><path id="e08zzkjlq7fbk7" d="M300.243000,194.416000L35.415000,194.416000L35.415000,132.623000C35.415000,117.616000,46.891000,106.140000,61.898000,106.140000L236.684000,106.140000L300.243000,194.416000Z" fill="rgb(195,154,110)" stroke="none" stroke-width="1"/><g id="e08zzkjlq7fbk8"><path id="e08zzkjlq7fbk9" d="M159.001000,256.209000L53.070000,256.209000C47.773000,256.209000,44.242000,252.678000,44.242000,247.381000C44.242000,242.084000,47.773000,238.553000,53.070000,238.553000L159.001000,238.553000C164.298000,238.553000,167.829000,242.084000,167.829000,247.381000C167.829000,252.678000,164.298000,256.209000,159.001000,256.209000" fill="rgb(255,255,255)" stroke="none" stroke-width="1"/><path id="e08zzkjlq7fbk10" d="M159.001000,291.520000L53.070000,291.520000C47.773000,291.520000,44.242000,287.989000,44.242000,282.692000C44.242000,277.395000,47.773000,273.864000,53.070000,273.864000L159.001000,273.864000C164.298000,273.864000,167.829000,277.395000,167.829000,282.692000C167.829000,287.989000,164.298000,291.520000,159.001000,291.520000" fill="rgb(255,255,255)" stroke="none" stroke-width="1"/></g></svg>