<svg id="etw86vo89iw1" xmlns="http://www.w3.org/2000/svg" xmlns:xlink="http://www.w3.org/1999/xlink" viewBox="0 0 503.312000 503.312000" shape-rendering="geometricPrecision" text-rendering="geometricPrecision"><style><![CDATA[#etw86vo89iw6_ts {animation: etw86vo89iw6_ts__ts 3000ms linear 1 normal forwards}@keyframes etw86vo89iw6_ts__ts { 0% {transform: translate(303.728516px,147.525009px) scale(0,1)} 16.666667% {transform: translate(303.728516px,147.525009px) scale(0,1)} 33.333333% {transform: translate(303.728516px,147.525009px) scale(1,1)} 100% {transform: translate(303.728516px,147.525009px) scale(1,1)} }#etw86vo89iw7_ts {animation: etw86vo89iw7_ts__ts 3000ms linear 1 normal forwards}@keyframes etw86vo89iw7_ts__ts { 0% {transform: translate(303.728516px,199.593002px) scale(0,1)} 33.333333% {transform: translate(303.728516px,199.593002px) scale(0,1)} 50% {transform: translate(303.728516px,199.593002px) scale(1,1)} 100% {transform: translate(303.728516px,199.593002px) scale(1,1)} }#etw86vo89iw8_ts {animation: etw86vo89iw8_ts__ts 3000ms linear 1 normal forwards}@keyframes etw86vo89iw8_ts__ts { 0% {transform: translate(303.728516px,251.660995px) scale(0,1)} 50% {transform: translate(303.728516px,251.660995px) scale(0,1)} 66.666667% {transform: translate(303.728516px,251.660995px) scale(1,1)} 100% {transform: translate(303.728516px,251.660995px) scale(1,1)} }#etw86vo89iw9_ts {animation: etw86vo89iw9_ts__ts 3000ms linear 1 normal forwards}@keyframes etw86vo89iw9_ts__ts { 0% {transform: translate(251.661507px,303.729004px) scale(0,1)} 66.666667% {transform: translate(251.661507px,303.729004px) scale(0,1)} 76.666667% {transform: translate(251.661507px,303.729004px) scale(1,1)} 100% {transform: translate(251.661507px,303.729004px) scale(1,1)} }#etw86vo89iw10_ts {animation: etw86vo89iw10_ts__ts 3000ms linear 1 normal forwards}@keyframes etw86vo89iw10_ts__ts { 0% {transform: translate(251.661507px,355.796997px) scale(0,1)} 76.666667% {transform: translate(251.661507px,355.796997px) scale(0,1)} 90% {transform: translate(251.661507px,355.796997px) scale(1,1)} 100% {transform: translate(251.661507px,355.796997px) scale(1,1)} }#etw86vo89iw11_ts {animation: etw86vo89iw11_ts__ts 3000ms linear 1 normal forwards}@keyframes etw86vo89iw11_ts__ts { 0% {transform: translate(251.661507px,407.863983px) scale(0,1)} 90% {transform: translate(251.661507px,407.863983px) scale(0,1)} 100% {transform: translate(251.661507px,407.863983px) scale(1,1)} }#etw86vo89iw12 {animation: etw86vo89iw12_c_o 3000ms linear 1 normal forwards}@keyframes etw86vo89iw12_c_o { 0% {opacity: 0} 16.666667% {opacity: 1} 100% {opacity: 1} }]]></style><g id="etw86vo89iw2"><path id="etw86vo89iw3" d="M433.898000,104.136000L347.118000,104.136000C337.572000,104.136000,329.762000,96.326000,329.762000,86.780000L329.762000,0L433.898000,104.136000Z" fill="rgb(212,208,186)" stroke="none" stroke-width="1"/><path id="etw86vo89iw4" d="M433.898000,104.136000L347.118000,104.136000C337.572000,104.136000,329.762000,96.326000,329.762000,86.780000L329.762000,0L86.780000,0C77.234000,0,69.424000,7.810000,69.424000,17.356000L69.424000,485.966000C69.424000,495.512000,77.234000,503.322000,86.780000,503.322000L416.543000,503.322000C426.089000,503.322000,433.899000,495.512000,433.899000,485.966000L433.899000,104.136000L433.898000,104.136000Z" fill="rgb(239,234,221)" stroke="none" stroke-width="1"/><g id="etw86vo89iw5"><g id="etw86vo89iw6_ts" transform="translate(303.728516,147.525009) scale(0,1)"><path id="etw86vo89iw6" d="M381.831000,156.203000L225.627000,156.203000C220.420000,156.203000,216.949000,152.732000,216.949000,147.525000C216.949000,142.318000,220.420000,138.847000,225.627000,138.847000L381.830000,138.847000C387.037000,138.847000,390.508000,142.318000,390.508000,147.525000C390.508000,152.732000,387.037000,156.203000,381.831000,156.203000" transform="translate(-303.728516,-147.525009)" fill="rgb(212,208,186)" stroke="none" stroke-width="1"/></g><g id="etw86vo89iw7_ts" transform="translate(303.728516,199.593002) scale(0,1)"><path id="etw86vo89iw7" d="M381.831000,208.271000L225.627000,208.271000C220.420000,208.271000,216.949000,204.800000,216.949000,199.593000C216.949000,194.386000,220.420000,190.915000,225.627000,190.915000L381.830000,190.915000C387.037000,190.915000,390.508000,194.386000,390.508000,199.593000C390.508000,204.800000,387.037000,208.271000,381.831000,208.271000" transform="translate(-303.728516,-199.593002)" fill="rgb(212,208,186)" stroke="none" stroke-width="1"/></g><g id="etw86vo89iw8_ts" transform="translate(303.728516,251.660995) scale(0,1)"><path id="etw86vo89iw8" d="M381.831000,260.339000L225.627000,260.339000C220.420000,260.339000,216.949000,256.868000,216.949000,251.661000C216.949000,246.454000,220.420000,242.983000,225.627000,242.983000L381.830000,242.983000C387.037000,242.983000,390.508000,246.454000,390.508000,251.661000C390.508000,256.868000,387.037000,260.339000,381.831000,260.339000" transform="translate(-303.728516,-251.660995)" fill="rgb(212,208,186)" stroke="none" stroke-width="1"/></g><g id="etw86vo89iw9_ts" transform="translate(251.661507,303.729004) scale(0,1)"><path id="etw86vo89iw9" d="M381.831000,312.407000L121.492000,312.407000C116.285000,312.407000,112.814000,308.936000,112.814000,303.729000C112.814000,298.522000,116.285000,295.051000,121.492000,295.051000L381.831000,295.051000C387.038000,295.051000,390.509000,298.522000,390.509000,303.729000C390.508000,308.936000,387.037000,312.407000,381.831000,312.407000" transform="translate(-251.661507,-303.729004)" fill="rgb(212,208,186)" stroke="none" stroke-width="1"/></g><g id="etw86vo89iw10_ts" transform="translate(251.661507,355.796997) scale(0,1)"><path id="etw86vo89iw10" d="M381.831000,364.475000L121.492000,364.475000C116.285000,364.475000,112.814000,361.004000,112.814000,355.797000C112.814000,350.590000,116.285000,347.119000,121.492000,347.119000L381.831000,347.119000C387.038000,347.119000,390.509000,350.590000,390.509000,355.797000C390.508000,361.003000,387.037000,364.475000,381.831000,364.475000" transform="translate(-251.661507,-355.796997)" fill="rgb(212,208,186)" stroke="none" stroke-width="1"/></g><g id="etw86vo89iw11_ts" transform="translate(251.661507,407.863983) scale(0,1)"><path id="etw86vo89iw11" d="M381.831000,416.542000L121.492000,416.542000C116.285000,416.542000,112.814000,413.071000,112.814000,407.864000C112.814000,402.657000,116.285000,399.186000,121.492000,399.186000L381.831000,399.186000C387.038000,399.186000,390.509000,402.657000,390.509000,407.864000C390.509000,413.071000,387.037000,416.542000,381.831000,416.542000" transform="translate(-251.661507,-407.863983)" fill="rgb(212,208,186)" stroke="none" stroke-width="1"/></g></g><text id="etw86vo89iw12" dx="0" dy="0" font-family="monospace" font-size="24" transform="matrix(7.64995000000000 0 0 7.64995000000000 105.92437550199998 263.34978621000005)" opacity="0" fill="rgb(193,112,112)" stroke="none" stroke-width="0"><tspan id="etw86vo89iw13" font-family="monospace" font-size="24" transform="matrix(7.64995000000000 0 0 7.64995000000000 105.92437550199998 263.34978621000005)" fill="rgb(193,112,112)" stroke="none" stroke-width="0"><![CDATA[P]]></tspan></text><path id="etw86vo89iw14" d="" fill="rgb(113,195,133)" stroke="none" stroke-width="0"/></g></svg>