<?xml version="1.0"?>
<svg xmlns="http://www.w3.org/2000/svg" xmlns:xlink="http://www.w3.org/1999/xlink" xmlns:svgjs="http://svgjs.com/svgjs" version="1.1" width="512" height="512" x="0" y="0" viewBox="0 0 62 62" style="enable-background:new 0 0 512 512" xml:space="preserve" class=""><g><g xmlns="http://www.w3.org/2000/svg"><g><g><path d="m8.535 58c-1.398 0-2.535-1.138-2.535-2.535v-6.93c0-1.397 1.137-2.535 2.535-2.535.502 0 .988.147 1.406.426l4.93 3.286c.707.472 1.129 1.261 1.129 2.109v.357c0 .849-.422 1.638-1.128 2.109l-4.93 3.286c-.419.28-.905.427-1.407.427z" fill="#fb8312" data-original="#f0bc5e" style="" class=""/></g></g><g><path d="m11 23v-1.146c0-1.136.642-2.175 1.658-2.683l3.267-1.633c1.586 1.002 3.411 1.592 5.311 1.698l13.764.764v1.003l1-.083v-3.92c0-7.168-5.832-13-13-13s-13 5.832-13 13v6z" fill="#fb8312" data-original="#f0bc5e" style="" class=""/></g><g><path d="m20 26v-1c0-1.654-1.346-3-3-3s-3 1.346-3 3v1h2v-1c0-.552.449-1 1-1s1 .448 1 1v1z" fill="#000000" data-original="#000000" style="" class=""/><path d="m28 25c0-.552.449-1 1-1s1 .448 1 1v1h2v-1c0-1.654-1.346-3-3-3s-3 1.346-3 3v1h2z" fill="#000000" data-original="#000000" style="" class=""/><path d="m27.707 31.707-1.414-1.414c-1.101 1.101-2.565 1.707-4.122 1.707h-2.171v2h2.171c2.091 0 4.057-.814 5.536-2.293z" fill="#000000" data-original="#000000" style="" class=""/><path d="m54.293 14.293 1.414 1.414.586-.586c1.085-1.085 1.707-2.587 1.707-4.121s-.622-3.036-1.707-4.121l-.586-.586-1.414 1.414.586.586c.712.713 1.121 1.699 1.121 2.707s-.409 1.994-1.121 2.707z" fill="#000000" data-original="#000000" style="" class=""/><path d="m60 11c0 1.719-.568 3.424-1.6 4.8l-1.2 1.6 1.6 1.201 1.2-1.601c1.29-1.721 2-3.852 2-6s-.71-4.279-2-6.001l-1.2-1.6-1.6 1.201 1.2 1.599c1.032 1.377 1.6 3.082 1.6 4.801z" fill="#000000" data-original="#000000" style="" class=""/><path d="m60.492 39.459-7.337-4.892c-.559-.371-1.208-.567-1.878-.567-1.136 0-2.189.563-2.818 1.508l-.392.589c-.246-.059-.496-.097-.753-.097-1.169 0-2.255.631-2.834 1.646l-6.83 11.952c-.504-.95-1.502-1.598-2.65-1.598-1.25 0-2.324.769-2.774 1.857l-.255-.042c-.216-3.895-2.146-7.475-5.162-9.815h5.191c3.309 0 6-2.691 6-6v-2h1c2.757 0 5-2.243 5-5 0-2.414-1.721-4.434-4-4.899v-5.101c0-.339-.031-.671-.051-1.005.017 0 .034.005.051.005h2c.393 0 .758-.118 1.067-.315l2.746 3.433c.449.561 1.118.882 1.836.882 1.296 0 2.351-1.055 2.351-2.351v-2.869l1.302-.325c1.589-.396 2.698-1.817 2.698-3.455s-1.109-3.059-2.698-3.455l-1.302-.325v-2.869c0-1.296-1.055-2.351-2.351-2.351-.718 0-1.387.321-1.836.882l-2.746 3.433c-.309-.197-.674-.315-1.067-.315h-2c-1.103 0-2 .897-2 2v1.017c-2.864-5.359-8.511-9.017-15-9.017-9.374 0-17 7.626-17 17v5.101c-2.279.465-4 2.485-4 4.899 0 2.757 2.243 5 5 5h4.003c1.364 3.26 4.022 5.839 7.325 7.117-1.409 1.04-2.328 2.706-2.328 4.587v.315c-1.674-1.261-3.747-2.019-6-2.019-5.514 0-10 4.486-10 10s4.486 10 10 10c2.253 0 4.326-.758 6-2.019v2.019h16v-4h6c1.09 0 2.078-.441 2.8-1.15l6.004 4.504c.557.417 1.246.646 1.942.646 1.12 0 2.178-.594 2.762-1.549l9.996-16.356c.324-.532.496-1.144.496-1.818 0-1.133-.563-2.187-1.508-2.818zm-9.675-29.975c.697.175 1.183.798 1.183 1.516s-.486 1.341-1.183 1.516l-.817.204v-3.44zm-3.442-5.352c.188-.235.625-.081.625.219v13.299c0 .301-.438.454-.625.219l-3.375-4.22v-5.298zm-7.375 3.868h2l.001 6h-2.001zm12.046 28.232 7.335 4.891c.388.258.619.69.619 1.205 0 .018-.006.034-.007.052-.796.329-1.711.273-2.438-.212l-7.706-5.138.275-.413c.408-.614 1.307-.793 1.922-.385zm-5.829 2.405c.349-.609 1.216-.813 1.799-.425l7.174 4.783-9.492 15.029-3.876-2.907c.104-.357.178-.727.178-1.117 0-1.658-1.014-3.083-2.455-3.688zm-16.274 10.84-2.017-.336-.527-5.797c1.419 1.724 2.326 3.855 2.544 6.133zm-4.943-11.477c-.551 0-1-.448-1-1s.449-1 1-1c1.253 0 2.348.814 2.715 2zm11-4c0 2.206-1.794 4-4 4h-2.072c2.302-1.449 4.054-3.555 5.071-6h1.001zm2-4h-2.356c.229-.971.356-1.975.356-3v-3h2zm4-3c0 1.302-.839 2.402-2 2.816v-5.631c1.161.413 2 1.513 2 2.815zm-19-25c8.271 0 15 6.729 15 15v5h-2v-.943-1.057c0-2.793-1.988-5.217-4.726-5.765l-1.078-.216-.393 1.961 1.078.216c1.447.289 2.576 1.372 2.969 2.738l-12.559-.697c-2.485-.139-4.823-1.184-6.584-2.944l-1.414 1.414c.233.233.478.452.728.664l-1.81.905c-1.364.682-2.211 2.053-2.211 3.578v.146h-2v-5c0-8.271 6.729-15 15-15zm-19 25c0-1.302.839-2.402 2-2.816v5.631c-1.161-.413-2-1.513-2-2.815zm4 3v-6h2v3c0 1.034.134 2.035.363 3zm4-3v-5.146c0-.763.423-1.448 1.105-1.789l2.777-1.389c1.61.913 3.418 1.453 5.298 1.557l12.82.713v6.054c0 3.729-1.886 7.145-4.962 9.17-.877-1.327-2.375-2.17-4.038-2.17-1.654 0-3 1.346-3 3 0 .337.068.655.171.958-5.678-.426-10.171-5.172-10.171-10.958zm9.704 13c1.928 0 3.514 1.448 3.689 3.369l.351 3.863-6.386 1.276c-.335-.896-.794-1.729-1.359-2.483v-2.321c.001-2.042 1.663-3.704 3.705-3.704zm-11.704 20c-4.411 0-8-3.589-8-8s3.589-8 8-8 8 3.589 8 8-3.589 8-8 8zm20 0h-12v-2.026c.569-.76 1.031-1.602 1.367-2.507 1.815 1.619 4.145 2.533 6.633 2.533h4zm-4-4c-2.364 0-4.552-1.028-6.077-2.816.046-.389.077-.783.077-1.184 0-.53-.054-1.046-.133-1.554l6.059-1.211.008.088c.082.904.766 1.641 1.663 1.791l6.403 1.067v-1.181c0-.552.449-1 1-1s1 .448 1 1v1h2c1.103 0 2 .897 2 2s-.897 2-2 2zm23.801 3.408c-.361.592-1.241.762-1.798.345l-.701-.525 9.57-15.153c.619.323 1.295.5 1.979.522z" fill="#000000" data-original="#000000" style="" class=""/><path d="m47.5 41.197h2v3.606h-2z" transform="matrix(.555 -.832 .832 .555 -14.181 59.502)" fill="#000000" data-original="#000000" style="" class=""/><path d="m46.5 43.585h2v5.831h-2z" transform="matrix(.515 -.858 .858 .515 -16.812 63.307)" fill="#000000" data-original="#000000" style="" class=""/></g></g></g></svg>
