<?xml version="1.0"?>
<svg xmlns="http://www.w3.org/2000/svg" xmlns:xlink="http://www.w3.org/1999/xlink" xmlns:svgjs="http://svgjs.com/svgjs" version="1.1" width="512" height="512" x="0" y="0" viewBox="0 0 62 62" style="enable-background:new 0 0 512 512" xml:space="preserve" class=""><g><g xmlns="http://www.w3.org/2000/svg"><g><g><path d="m15 34v-1h-1c-.552 0-1-.448-1-1v-3.253-.01c-3.449-.889-6-4.011-6-7.737s2.551-6.848 6-7.738v-.009-10.54l-.173.03-.117.028c-7.603 2.311-12.71 9.206-12.71 17.158 0 7.123 4.217 13.57 10.742 16.425l5.669 2.48.197-.37c-1.004-1.211-1.608-2.767-1.608-4.464z" fill="#fb8312" data-original="#f0bc5e" style="" class=""/></g><g><path d="m34.804 1.02c-3.253.65-6.585.98-9.903.98h-6.972c-.312 0-.621.009-.929.025v11.228.009c1.238.319 2.358.924 3.288 1.745l.002-.007h7.71 3.853c2.468-1.364 4.147-3.987 4.147-7v-7.22z" fill="#fb8312" data-original="#f0bc5e" style="" class=""/></g></g><g><path d="m20 21c0-2.757-2.243-5-5-5s-5 2.243-5 5 2.243 5 5 5 5-2.243 5-5zm-8 0c0-1.654 1.346-3 3-3s3 1.346 3 3-1.346 3-3 3-3-1.346-3-3z" fill="#000000" data-original="#000000" style=""/><path d="m29 26c1.654 0 3-1.346 3-3s-1.346-3-3-3-3 1.346-3 3 1.346 3 3 3zm0-4c.551 0 1 .449 1 1s-.449 1-1 1-1-.449-1-1 .449-1 1-1z" fill="#000000" data-original="#000000" style=""/><path d="m48.553 7.658-2.764-1.382c-.362-.18-.767-.276-1.171-.276-1.444 0-2.618 1.174-2.618 2.618v2.764c0 1.444 1.174 2.618 2.618 2.618.404 0 .809-.096 1.171-.276l2.763-1.382c.893-.446 1.448-1.343 1.448-2.342s-.555-1.896-1.447-2.342zm-.895 2.895-2.764 1.382c-.391.197-.894-.117-.894-.553v-2.764c0-.341.277-.618.618-.618.095 0 .191.022.276.065l2.764 1.382c.211.106.342.317.342.553s-.131.447-.342.553z" fill="#000000" data-original="#000000" style=""/><path d="m52 10h2v2h-2z" fill="#000000" data-original="#000000" style=""/><path d="m56 10h2v2h-2z" fill="#000000" data-original="#000000" style=""/><path d="m59 2h-18c-1.654 0-3 1.346-3 3v10c0 1.654 1.346 3 3 3h6.219l.568 2.272c.255 1.018 1.165 1.728 2.213 1.728s1.958-.71 2.213-1.728l.568-2.272h6.219c1.654 0 3-1.346 3-3v-10c0-1.654-1.346-3-3-3zm1 13c0 .551-.449 1-1 1h-7.781l-.947 3.787c-.063.251-.482.251-.545 0l-.946-3.787h-7.781c-.551 0-1-.449-1-1v-10c0-.551.449-1 1-1h18c.551 0 1 .449 1 1z" fill="#000000" data-original="#000000" style=""/><path d="m46 56h-4.556c.344-.591.556-1.268.556-2 0-2.206-1.794-4-4-4h-.246l-1.793-6.275-1.923.55 1.636 5.725h-2.78l-.12-1.083c-.313-2.817-1.773-5.28-3.909-6.917h.135c1.333 0 2.453-.88 2.842-2.085 2.356-.403 4.158-2.447 4.158-4.915v-18.193c-.004-1.548-1.303-2.807-2.895-2.807h-12.461c-.784-.633-1.677-1.131-2.644-1.475v-10.525c0-1.103-.897-2-2-2h-2c-1.103 0-2 .897-2 2v10.525c-3.49 1.24-6 4.566-6 8.475s2.51 7.235 6 8.475v2.525c0 1.103.897 2 2 2 0 3.296 2.004 6.131 4.857 7.355-1.04.912-1.719 2.207-1.82 3.671l-.726-2.904c-.312-1.249-1.43-2.122-2.718-2.122h-.791c-1.545 0-2.802 1.257-2.802 2.802 0 .206.022.411.067.608l4.131 18.59h31.802c1.103 0 2-.897 2-2v-2c0-1.103-.897-2-2-2zm-20.274-11.27 1.188 5.942-1.621 1.621 1.414 1.414 1.707-1.707h5.586v4h-9c-3.309 0-6-2.691-6-6v-4.604c0-1.873 1.523-3.396 3.396-3.396 1.613 0 3.014 1.148 3.33 2.73zm14.274 9.27c0 1.103-.897 2-2 2h-2v-4h2c1.103 0 2 .897 2 2zm-9.213-4.862.096.862h-2.063l-1.133-5.662c-.064-.321-.157-.629-.275-.925 1.843 1.31 3.113 3.362 3.375 5.725zm-1.787-9.138h-1.719l.205-.817c.173-.697.796-1.183 1.514-1.183.551 0 1 .449 1 1s-.449 1-1 1zm4-6c-2.415 0-4.435-1.721-4.899-4h5.899v4zm-19-32h2v10.059c-.329-.037-.662-.059-1-.059s-.671.022-1 .059zm-6 19c0-3.86 3.14-7 7-7s7 3.14 7 7-3.14 7-7 7-7-3.14-7-7zm7 9c.338 0 .671-.022 1-.059v2.059h-2v-2.059c.329.037.662.059 1 .059zm7 10c-3.309 0-6-2.691-6-6 1.103 0 2-.897 2-2v-2.525c3.49-1.24 6-4.565 6-8.475 0-1.849-.562-3.569-1.522-5h10.627c.484 0 .894.372.895.829v11.171h-8v1c0 3.86 3.14 7 7 7h.816c-.328.919-1.086 1.627-2.036 1.884-.444-1.102-1.521-1.884-2.78-1.884-1.638 0-3.059 1.109-3.455 2.698l-.326 1.302zm-6.198 20-3.784-17.025c-.012-.056-.018-.114-.018-.173 0-.442.36-.802.802-.802h.791c.369 0 .689.25.778.608l4.348 17.392zm3.995-3.936c1.4 1.203 3.216 1.936 5.203 1.936h11v2h-15.219zm26.203 3.936h-8v-2h8z" fill="#000000" data-original="#000000" style=""/><path d="m60 56h-.21l-4.246-17.834.355-1.598c.067-.305.101-.617.101-.928 0-1.341-.64-2.621-1.712-3.424l-1.39-1.042 1.005-3.684c.064-.238.097-.482.097-.726 0-1.524-1.24-2.764-2.764-2.764h-.889c-1.243 0-2.339.837-2.667 2.037l-5.583 20.473c-.064.238-.097.482-.097.726 0 1.524 1.24 2.764 2.764 2.764h.889c1.243 0 2.339-.837 2.667-2.037l.535-1.963h1.514c.358 0 .7-.057 1.034-.139l2.34 10.139h-1.743c-1.103 0-2 .897-2 2v2c0 1.103.897 2 2 2h8c1.103 0 2-.897 2-2v-2c0-1.103-.897-2-2-2zm-13.61-8.563c-.091.332-.394.563-.737.563h-.889c-.421 0-.764-.343-.764-.764 0-.068.009-.136.027-.201l5.583-20.472c.091-.332.394-.563.737-.563h.889c.421 0 .764.343.764.764 0 .068-.009.136-.027.201zm3.01-3.437 2.932-10.751.756.567c.571.428.912 1.11.912 1.824 0 .165-.019.332-.054.495l-1.351 6.08c-.234 1.051-1.149 1.785-2.226 1.785zm3.832.893c.64-.578 1.115-1.344 1.314-2.244l.004-.018 3.184 13.369h-1.938zm-1.232 15.107v-2h8l.001 2z" fill="#000000" data-original="#000000" style=""/></g></g></g></svg>
