<?xml version="1.0"?>
<svg xmlns="http://www.w3.org/2000/svg" xmlns:xlink="http://www.w3.org/1999/xlink" xmlns:svgjs="http://svgjs.com/svgjs" version="1.1" width="512" height="512" x="0" y="0" viewBox="0 0 62 62" style="enable-background:new 0 0 512 512" xml:space="preserve" class=""><g><g xmlns="http://www.w3.org/2000/svg"><g><path d="m46 0c-8.822 0-16 7.178-16 16v1.277c.595.346 1 .984 1 1.723 0 .729-.396 1.357-.979 1.707.623 1.648.979 3.427.979 5.293 0 .703-.065 1.389-.159 2.066 1.175 2.906 3.507 5.279 6.527 6.454 1.009-1.54 2.729-2.52 4.632-2.52l.745-1.49c-4.486-1.388-7.745-5.568-7.745-10.51v-4.146c0-1.136.642-2.175 1.658-2.683 0 0 3.785-1.892 3.785-1.892 1.377 1.091 3.107 1.721 4.942 1.721h6.615c.675 0 1.297-.223 1.798-.599l-.003-.003 1.546.773c1.017.508 1.659 1.547 1.659 2.683v4.146c0 4.942-3.259 9.122-7.746 10.51l.746 1.49c1.903 0 3.623.98 4.631 2.52 4.419-1.719 7.369-6 7.369-10.766v-7.754c0-8.822-7.178-16-16-16z" fill="#fb8312" data-original="#f0bc5e" style="" class=""/></g><g><path d="m18 0h-4c-6.617 0-12 5.383-12 12v5.277c.295-.171.634-.277 1-.277h2v-1.921c0-1.251.776-2.37 1.947-2.809l5.467-2.05.017-.007c2.462 1.276 5.161 2.064 7.953 2.279l3.846.296c1.563.12 2.77 1.424 2.77 2.991v1.221h2c.366 0 .705.106 1 .277v-5.277c0-6.617-5.383-12-12-12z" fill="#fb8312" data-original="#f0bc5e" style="" class=""/></g><g><path d="m62 26c0-.413-.018-.822-.049-1.227-.238 2.674-1.402 5.138-3.217 7.013-.63 1.381-1.484 2.638-2.505 3.736l-.015-.044c-.819-2.456-2.987-4.168-5.517-4.438 4.289-1.83 7.303-6.089 7.303-11.04v-4.146c0-1.524-.847-2.896-2.211-3.578l-.39-.195c.374-.608.601-1.316.601-2.081 0-2.206-1.794-4-4-4h-.146c-1.524 0-2.896.847-3.578 2.211l-.171.342 1.789.895.171-.342c.341-.682 1.027-1.106 1.789-1.106h.146c1.103 0 2 .897 2 2s-.897 2-2 2h-6.615c-2.86 0-5.395-1.716-6.457-4.372l-1.857.743c.399.998.975 1.877 1.661 2.644l-2.521 1.261c-1.364.682-2.211 2.054-2.211 3.578v4.146c0 4.951 3.014 9.21 7.304 11.041-2.53.269-4.698 1.982-5.517 4.438l-.015.044c-1.024-1.101-1.879-2.362-2.51-3.747-.647-.67-1.202-1.421-1.673-2.222.261-1.146.411-2.332.411-3.554 0-1.704-.281-3.37-.805-4.971.495-.535.805-1.244.805-2.029 0-1.654-1.346-3-3-3h-1v-.222c0-2.077-1.623-3.829-3.693-3.988l-3.846-.296c-3.976-.306-7.723-1.784-10.836-4.275l-1.25 1.562c.554.443 1.126.857 1.715 1.242l-3.495 1.311c-1.552.582-2.595 2.087-2.595 3.745v.921h-1c-1.654 0-3 1.346-3 3 0 .785.31 1.494.805 2.029-.524 1.602-.805 3.268-.805 4.971 0 8.822 7.178 16 16 16 6.882 0 12.746-4.376 15-10.485 2.254 6.109 8.118 10.485 15 10.485 8.822 0 16-7.178 16-16zm-33-8c.551 0 1 .449 1 1s-.449 1-1 1h-1v-2zm-23-2.921c0-.829.521-1.582 1.298-1.873l5.052-1.895c2.473 1.221 5.164 1.961 7.958 2.177l3.846.296c1.035.08 1.846.956 1.846 1.994v4.222c0 5.514-4.486 10-10 10s-10-4.486-10-10zm7.82 16.713c.708.13 1.435.208 2.18.208s1.472-.078 2.18-.208l-2.18 1.09zm-2.024 1.224 3.073 1.536-1.551 1.034-1.541-2.569c.006 0 .012-.001.019-.001zm8.408 0c.007 0 .013.001.019.002l-1.541 2.569-1.551-1.034zm-17.204-15.016h1v2h-1c-.551 0-1-.449-1-1s.449-1 1-1zm-1 8c0-1.381.209-2.735.602-4.04.132.017.262.04.398.04h1.181c.688 4.075 3.425 7.462 7.123 9.041-2.531.269-4.698 1.982-5.517 4.438l-.017.048c-2.331-2.502-3.77-5.846-3.77-9.527zm5.384 11.011.3-.9c.368-1.104 1.134-1.985 2.102-2.526l2.897 4.828 3.317-2.211 3.318 2.212 2.897-4.828c.967.541 1.733 1.421 2.102 2.525l.3.901c-2.379 1.865-5.367 2.988-8.617 2.988s-6.238-1.123-8.616-2.989zm18.846-1.485-.016-.048c-.819-2.456-2.987-4.168-5.517-4.438 3.698-1.579 6.435-4.966 7.123-9.041h1.18c.136 0 .266-.023.398-.04.393 1.306.602 2.659.602 4.041 0 3.681-1.439 7.025-3.77 9.526zm17.05-3.849c.875.204 1.783.323 2.72.323s1.845-.119 2.72-.323l.099.198-2.819 3.524-2.819-3.524zm-7.28-11.677v-4.146c0-.762.424-1.448 1.105-1.789l3.232-1.616c1.452.99 3.196 1.55 5.048 1.55h6.615c.664 0 1.281-.178 1.833-.466l1.062.531c.681.342 1.105 1.028 1.105 1.79v4.146c0 5.514-4.486 10-10 10s-10-4.486-10-10zm1.384 17.011.3-.9c.572-1.716 2.094-2.899 3.865-3.076l4.451 5.566 4.452-5.565c1.771.176 3.293 1.36 3.865 3.076l.3.9c-2.377 1.867-5.365 2.988-8.617 2.988s-6.24-1.12-8.616-2.989z" fill="#000000" data-original="#000000" style=""/><path d="m14 19c0-1.654-1.346-3-3-3s-3 1.346-3 3 1.346 3 3 3 3-1.346 3-3zm-4 0c0-.551.449-1 1-1s1 .449 1 1-.449 1-1 1-1-.449-1-1z" fill="#000000" data-original="#000000" style=""/><path d="m21 22c1.654 0 3-1.346 3-3s-1.346-3-3-3-3 1.346-3 3 1.346 3 3 3zm0-4c.551 0 1 .449 1 1s-.449 1-1 1-1-.449-1-1 .449-1 1-1z" fill="#000000" data-original="#000000" style=""/><path d="m14 26h2.586c1.179 0 2.288-.459 3.121-1.293l-1.414-1.414c-.449.449-1.072.707-1.707.707h-2.586z" fill="#000000" data-original="#000000" style=""/><path d="m49.707 24.707-1.414-1.414c-.449.449-1.072.707-1.707.707h-2.586v2h2.586c1.179 0 2.288-.459 3.121-1.293z" fill="#000000" data-original="#000000" style=""/><path d="m44 20v-1c0-1.654-1.346-3-3-3s-3 1.346-3 3v1h2v-1c0-.551.449-1 1-1s1 .449 1 1v1z" fill="#000000" data-original="#000000" style=""/><path d="m50 19c0-.551.449-1 1-1s1 .449 1 1v1h2v-1c0-1.654-1.346-3-3-3s-3 1.346-3 3v1h2z" fill="#000000" data-original="#000000" style=""/><path d="m39 52h-4.279c-.862 0-1.625.549-1.897 1.367l-.425 1.277c-1.908-1.005-3.17-2.89-3.37-5.04l.867-.433c.68-.341 1.104-1.026 1.104-1.789v-3.382c0-1.103-.897-2-2-2-4.411 0-8 3.589-8 8 0 6.617 5.383 12 12 12 4.411 0 8-3.589 8-8 0-1.103-.897-2-2-2zm-6 8c-5.514 0-10-4.486-10-10 0-3.309 2.691-6 6-6v3.382l-2 1v.618c0 3.449 2.069 6.505 5.271 7.785l1.342.538 1.108-3.323h4.279c0 3.309-2.691 6-6 6z" fill="#000000" data-original="#000000" style=""/><path d="m44 48h2v6h-2z" fill="#000000" data-original="#000000" style=""/><path d="m50 46h2v10h-2z" fill="#000000" data-original="#000000" style=""/><path d="m56 44h2v14h-2z" fill="#000000" data-original="#000000" style=""/><path d="m16 48h2v6h-2z" fill="#000000" data-original="#000000" style=""/><path d="m10 46h2v10h-2z" fill="#000000" data-original="#000000" style=""/><path d="m4 44h2v14h-2z" fill="#000000" data-original="#000000" style=""/></g></g></g></svg>
