<?xml version="1.0"?>
<svg xmlns="http://www.w3.org/2000/svg" xmlns:xlink="http://www.w3.org/1999/xlink" xmlns:svgjs="http://svgjs.com/svgjs" version="1.1" width="512" height="512" x="0" y="0" viewBox="0 0 62 62" style="enable-background:new 0 0 512 512" xml:space="preserve" class=""><g><g xmlns="http://www.w3.org/2000/svg"><g><path d="m30.264 17.781c.467-1.048 1.514-1.781 2.736-1.781h1v-1c0-2.761 2.239-5 5-5h1c0 1.657 1.343 3 3 3h13v3h1c1.222 0 2.269.733 2.737 1.781l.243-.561c.676-1.557 1.02-3.208 1.02-4.907 0-6.79-5.523-12.313-12.313-12.313h-7.302c-3.516 0-6.65 2.015-8.116 5.173-2.537.856-4.269 3.234-4.269 5.95v1.19c0 1.698.344 3.35 1.021 4.907z" fill="#fb8312" data-original="#f0bc5e" style=""/></g><g><path d="m10 32.347 8.951-8.068c.609-.521.979-1.249 1.04-2.049s-.191-1.574-.712-2.179c-1.034-1.212-2.966-1.414-4.275-.288l-2.004 1.94v-11.703h-2v16.424l5.35-5.183c.403-.346 1.063-.296 1.411.11.173.201.257.458.236.724-.021.268-.144.51-.366.7l-7.631 6.878-7.651-6.896c-.202-.173-.325-.414-.346-.682-.021-.27.062-.521.241-.729.34-.4 1.057-.403 1.363-.145l5.393 5.223v-16.424h-2v11.704l-2.045-1.979c-1.212-1.042-3.201-.884-4.229.319-.523.608-.778 1.385-.717 2.185.062.801.432 1.528 1.021 2.031z" fill="#000000" data-original="#000000" style="" class=""/><path d="m60 46v-9c0-2.757-2.243-5-5-5-1.641 0-3.088.806-4 2.031-.238-.32-.516-.605-.823-.86 3.998-1.648 6.822-5.583 6.823-10.17v-.001c2.206 0 4-1.794 4-4s-1.794-4-4-4v-1-1c0-3.388-2.426-6.251-5.768-6.809l-1.068-.178-.328 1.973 1.068.178c2.035.34 3.593 1.885 3.994 3.836h-11.898c-1.103 0-2-.897-2-2s.897-2 2-2h1v-2h-1c-1.859 0-3.411 1.279-3.858 3h-.142c-3.309 0-6 2.691-6 6-2.206 0-4 1.794-4 4s1.794 4 4 4c-.001 2.938 1.144 5.7 3.222 7.778 1.153 1.153 2.521 2.006 4.008 2.548-2.377 1.454-3.907 3.903-4.172 6.674h-2.058v-3c0-1.654-1.346-3-3-3h-4c-1.654 0-3 1.346-3 3v9.101c-.948.193-1.795.661-2.466 1.309-.531-.844-1.465-1.41-2.534-1.41h-16c-1.654 0-3 1.346-3 3v13h62v-16zm-29-27c0-1.103.897-2 2-2v4c-1.102 0-2-.897-2-2zm20.314 27c.435-.911.685-1.925.686-3v-3h6v6zm-17.315-3v3h-3.999v-1c0-1.654 1.346-3 3-3h1.183c-.112.314-.184.648-.184 1zm2 0c0-.552.448-1 1-1h5.466l1.702 2.555 1.664-1.109-1.831-2.749-.001-3.698c0-1.648 1.336-2.987 2.981-2.999h.019v-.002c1.654 0 3 1.346 3 3v6.001c0 2.757-2.243 5-5 5l-8 .001c-.552 0-1-.448-1-1zm19.001-9c1.654 0 3 1.346 3 3v1h-6v-1c0-1.654 1.346-3 3-3zm4-15c0 1.103-.897 2-2 2v-4c1.103 0 2 .897 2 2zm-24 3.999v-7.999c0-2.206 1.794-4 4-4h.142c.447 1.721 1.999 3 3.858 3h12v9.001c-.001 4.962-4.038 8.999-9 8.999h-1.146-.854c-2.404 0-4.665-.937-6.364-2.637-1.7-1.699-2.636-3.96-2.636-6.364zm6.789 11.725c.32-.16.656-.284.997-.392-.492.774-.787 1.685-.787 2.668l.001 3h-3.942c.28-2.263 1.652-4.238 3.731-5.276zm-14.789 1.276h4c.552 0 1 .448 1 1v3.101c-2.279.465-4 2.484-4 4.899v1h-2v-9c0-.552.448-1 1-1zm-2 12h3 6.183c.414 1.161 1.514 2 2.816 2l8-.001c1.901 0 3.625-.764 4.888-1.999h10.113v4h-38v-1c0-1.654 1.346-3 3-3zm-5 1v2 4 5h-8v-12h7c.552 0 1 .448 1 1zm-18 0c0-.552.448-1 1-1h7v12h-8zm26 11h-2v-2h2zm12 0h-2v-2h2zm-4 0h-2v-2h2zm6 0v-4h-10v4h-2v-4h-6v4h-2v-5-1h38v6z" fill="#000000" data-original="#000000" style="" class=""/><path d="m50 25v-1h-10v1c0 2.757 2.243 5 5 5s5-2.243 5-5zm-7.829 1h5.658c-.413 1.164-1.525 2-2.829 2s-2.416-.836-2.829-2z" fill="#000000" data-original="#000000" style="" class=""/><path d="m42 20h2c0-2.206-1.794-4-4-4s-4 1.794-4 4h2c0-1.103.897-2 2-2s2 .897 2 2z" fill="#000000" data-original="#000000" style="" class=""/><path d="m50 18c1.103 0 2 .897 2 2h2c0-2.206-1.794-4-4-4s-4 1.794-4 4h2c0-1.103.898-2 2-2z" fill="#000000" data-original="#000000" style="" class=""/></g></g></g></svg>
