<?xml version="1.0"?>
<svg xmlns="http://www.w3.org/2000/svg" xmlns:xlink="http://www.w3.org/1999/xlink" xmlns:svgjs="http://svgjs.com/svgjs" version="1.1" width="512" height="512" x="0" y="0" viewBox="0 0 62 62" style="enable-background:new 0 0 512 512" xml:space="preserve" class=""><g><g xmlns="http://www.w3.org/2000/svg"><g><path d="m17.534 29.028c-1.46-1.905-3.718-3.028-6.139-3.028h-2.496c-4.907 0-8.899 3.992-8.899 8.899 0 1.368.276 2.697.822 3.95l.262.601h.002c.241-.835 1.002-1.45 1.914-1.45h2v-2h1.101c2.564 0 5.093-.597 7.387-1.744.337-.168.708-.256 1.085-.256 1.34 0 2.427 1.087 2.427 2.427v1.573h2c.913 0 1.674.615 1.914 1.451h.002l.262-.601c.546-1.253.822-2.582.822-3.951v-.899c0-2.577-1.959-4.704-4.466-4.972z" fill="#fb8312" data-original="#f0bc5e" style=""/></g><g><path d="m53.101 26h-4.201c-4.908 0-8.9 3.992-8.9 8.899 0 1.368.276 2.696.822 3.949l.262.601h.003c.24-.835 1.001-1.449 1.913-1.449h2v-2h.838c1.888 0 3.565-1.208 4.162-3l.172.172c1.811 1.811 4.267 2.828 6.828 2.828v2h2c.913 0 1.675.616 1.914 1.452h.001l.262-.601c.546-1.255.823-2.584.823-3.952 0-4.907-3.992-8.899-8.899-8.899z" fill="#fb8312" data-original="#f0bc5e" style=""/></g><g><path d="m50 41h-2c0 1.654 1.346 3 3 3s3-1.346 3-3h-2c0 .551-.448 1-1 1s-1-.449-1-1z" fill="#000000" data-original="#000000" style=""/><path d="m11 44c1.654 0 3-1.346 3-3h-2c0 .551-.448 1-1 1s-1-.449-1-1h-2c0 1.654 1.346 3 3 3z" fill="#000000" data-original="#000000" style=""/><path d="m23.222 17.222 1.414 1.414c3.51-3.509 9.219-3.509 12.729 0l1.414-1.414c-4.29-4.289-11.268-4.289-15.557 0z" fill="#000000" data-original="#000000" style=""/><path d="m35.949 20.05c-1.322-1.322-3.079-2.05-4.949-2.05s-3.627.728-4.949 2.05l1.414 1.414c.944-.944 2.2-1.464 3.535-1.464s2.591.52 3.535 1.464z" fill="#000000" data-original="#000000" style=""/><path d="m28 25c0 1.654 1.346 3 3 3s3-1.346 3-3-1.346-3-3-3-3 1.346-3 3zm4 0c0 .551-.448 1-1 1s-1-.449-1-1 .448-1 1-1 1 .449 1 1z" fill="#000000" data-original="#000000" style=""/><path d="m21.567 32h18.927c.246-.711.574-1.383.983-2h-21.49c.688.515 1.23 1.204 1.58 2z" fill="#000000" data-original="#000000" style=""/><path d="m3.439 27.887c-.918-1.079-1.439-2.453-1.439-3.887 0-3.307 2.689-5.998 6.026-5.998h.004l.991.027.144-.855c.89-5.316 5.446-9.174 10.835-9.174 1.909 0 3.8.506 5.466 1.464l.87.5.497-.873c2.49-4.374 7.152-7.091 12.167-7.091 7.72 0 14 6.28 14 14v.069c-3.94.495-7 3.859-7 7.931h2c0-3.309 2.691-6 6-6s6 2.691 6 6c0 1.434-.521 2.807-1.439 3.887.529.412 1.013.878 1.437 1.398 1.279-1.454 2.002-3.328 2.002-5.285 0-4.072-3.06-7.436-7-7.931v-.069c0-8.822-7.178-16-16-16-5.409 0-10.458 2.765-13.401 7.276-1.747-.837-3.664-1.276-5.599-1.276-6.09 0-11.28 4.168-12.645 10.026-4.111.328-7.355 3.78-7.355 7.974 0 1.957.724 3.832 2.003 5.284.423-.519.908-.985 1.436-1.397z" fill="#000000" data-original="#000000" style=""/><path d="m59 37h-1v-2h-1c-2.313 0-4.486-.9-6.122-2.537l-1.315-1.312-.511 1.532c-.463 1.386-1.754 2.317-3.214 2.317h-1.838v2h-1c-1.654 0-3 1.346-3 3s1.346 3 3 3h1.09c.274 1.623 1.197 3.027 2.498 3.93-1.765 1.014-3.054 2.781-3.411 4.92l-.024.15h-1.153c-2.206 0-4 1.794-4 4h-2v-12h-3c-.771 0-1.468.301-2 .78-.532-.48-1.229-.78-2-.78h-3v12h-2c0-2.206-1.794-4-4-4h-1.153l-.025-.151c-.357-2.139-1.646-3.905-3.411-4.919 1.301-.903 2.224-2.307 2.498-3.93h1.091c1.654 0 3-1.346 3-3s-1.346-3-3-3h-1v-.573c0-1.889-1.537-3.427-3.427-3.427-.529 0-1.06.125-1.533.362-2.144 1.072-4.543 1.638-6.939 1.638h-2.101v2h-1c-1.654 0-3 1.346-3 3s1.346 3 3 3h1.09c.289 1.712 1.303 3.178 2.718 4.071-1.093.879-1.808 2.21-1.808 3.719v.21c0 6.065 4.935 11 11 11h3 10c.771 0 1.468-.301 2-.78.532.48 1.229.78 2 .78h10 3c6.065 0 11-4.935 11-11v-.21c0-1.508-.715-2.84-1.808-3.718 1.415-.894 2.428-2.359 2.718-4.071h1.09c1.654 0 3-1.346 3-3s-1.346-3.001-3-3.001zm-17 3c0-.551.448-1 1-1h1v2h-1c-.552 0-1-.449-1-1zm-23-1c.552 0 1 .449 1 1s-.448 1-1 1h-1v-2zm-17 1c0-.551.448-1 1-1h1v2h-1c-.552 0-1-.449-1-1zm46.03 8.456c-.261.47-.451.988-.543 1.546l-.334 1.998h-1.957c.33-1.613 1.406-2.9 2.834-3.544zm-6.03 5.544v2h-2c0-1.103.897-2 2-2zm-9-8h1v10h-2v-9c0-.551.448-1 1-1zm-5 0h1c.552 0 1 .449 1 1v9h-2zm-6 10h-2v-2c1.103 0 2 .897 2 2zm-7.153-4-.333-1.998c-.093-.558-.283-1.076-.544-1.546 1.428.643 2.504 1.93 2.833 3.544zm-8.847-15h.101c2.705 0 5.414-.64 7.834-1.849.197-.099.418-.151.638-.151.787 0 1.427.64 1.427 1.427v5.573c0 2.206-1.794 4-4 4h-.083-1.917c-2.206 0-4-1.794-4-4zm1 14v-.21c0-1.539 1.252-2.79 2.79-2.79 1.369 0 2.526.98 2.751 2.331l.419 2.512-.855 1.71 1.789.895.724-1.448h3.382v2h-2v3c0 .352.072.686.184 1h-.184c-4.963 0-9-4.038-9-9zm22 9h-10c-.552 0-1-.449-1-1v-1h12v1c0 .551-.448 1-1 1zm4 0c-.552 0-1-.449-1-1v-1h12v1c0 .551-.448 1-1 1zm22-9c0 4.962-4.037 9-9 9h-.184c.112-.314.184-.648.184-1v-3h-2v-2h3.382l.724 1.447 1.789-.895-.855-1.71.419-2.513c.225-1.349 1.382-2.329 2.751-2.329 1.538 0 2.79 1.251 2.79 2.79zm1-9c0 2.206-1.794 4-4 4h-1.917-.083c-2.206 0-4-1.794-4-4v-5.002c1.758-.052 3.346-.952 4.301-2.365 1.633 1.325 3.602 2.128 5.699 2.322zm3-1h-1v-2h1c.552 0 1 .449 1 1s-.448 1-1 1z" fill="#000000" data-original="#000000" style=""/><path d="m36.818 4.198c-.746.138-1.48.346-2.183.621l.729 1.862c.584-.228 1.195-.402 1.817-.517z" fill="#000000" data-original="#000000" style=""/><path d="m48.835 14.181 1.967-.361c-1.045-5.691-6.009-9.82-11.802-9.82v2c4.828 0 8.964 3.44 9.835 8.181z" fill="#000000" data-original="#000000" style=""/><path d="m12.205 14.5 1.73 1.001c1.25-2.16 3.574-3.501 6.065-3.501v-2c-3.203 0-6.19 1.724-7.795 4.5z" fill="#000000" data-original="#000000" style=""/></g></g></g></svg>
