<?xml version="1.0"?>
<svg xmlns="http://www.w3.org/2000/svg" xmlns:xlink="http://www.w3.org/1999/xlink" xmlns:svgjs="http://svgjs.com/svgjs" version="1.1" width="512" height="512" x="0" y="0" viewBox="0 0 62 62" style="enable-background:new 0 0 512 512" xml:space="preserve" class=""><g><g xmlns="http://www.w3.org/2000/svg"><g><path d="m23 0h-4c-7.168 0-13 5.832-13 13v6.277c.295-.171.634-.277 1-.277h2v-4.362c0-1.6.954-3.046 2.424-3.677l3.108-1.332-.048-.051c1.166.903 2.607 1.422 4.122 1.422h10.394c2.209 0 4 1.791 4 4v4h2c.366 0 .705.106 1 .277v-6.277c0-7.168-5.832-13-13-13z" fill="#fb8312" data-original="#f0bc5e" style="" class=""/></g><g><path d="m27 18c-1.654 0-3 1.346-3 3s1.346 3 3 3 3-1.346 3-3-1.346-3-3-3zm0 4c-.551 0-1-.449-1-1s.449-1 1-1 1 .449 1 1-.449 1-1 1z" fill="#000000" data-original="#000000" style=""/><path d="m15 18c-1.654 0-3 1.346-3 3s1.346 3 3 3 3-1.346 3-3-1.346-3-3-3zm0 4c-.551 0-1-.449-1-1s.449-1 1-1 1 .449 1 1-.449 1-1 1z" fill="#000000" data-original="#000000" style=""/><path d="m24.293 28.293c-1.101 1.101-2.564 1.707-4.122 1.707h-2.171v2h2.171c2.091 0 4.057-.814 5.536-2.293z" fill="#000000" data-original="#000000" style=""/><path d="m59 28h-9v-9c0-1.654-1.346-3-3-3h-11v2h11c.551 0 1 .449 1 1v9h-11c-1.654 0-3 1.346-3 3v9h-2.323l-.263-.657c-.951-2.378-3.092-3.986-5.585-4.283 4.486-1.803 7.735-6.033 8.12-11.06h1.051c1.654 0 3-1.346 3-3s-1.346-3-3-3h-1v-3c0-2.757-2.243-5-5-5h-10.395c-1.922 0-3.707-.955-4.773-2.555l-1.664 1.109c.177.265.368.517.572.754l-1.71.733c-1.841.79-3.03 2.594-3.03 4.597v3.362h-1c-1.654 0-3 1.346-3 3s1.346 3 3 3h1.051c.385 5.027 3.634 9.257 8.12 11.06-2.493.297-4.634 1.905-5.584 4.282l-.264.658h-8.323v-21c0-.551.449-1 1-1h3v-2h-3c-1.654 0-3 1.346-3 3v32c0 1.654 1.346 3 3 3h17v2h-12c-1.103 0-2 .897-2 2v2c0 1.103.897 2 2 2h34c1.103 0 2-.897 2-2v-2c0-1.103-.897-2-2-2h-11v-2h16c1.654 0 3-1.346 3-3v-4.2c.089-.165.166-.339.213-.528l.568-2.272h8.219c1.654 0 3-1.346 3-3v-10c0-1.654-1.346-3-3-3zm-29.485 12h-7.101l2.971-2.971c1.826.142 3.411 1.267 4.13 2.971zm-11.249-4.295c.882.19 1.796.295 2.734.295s1.852-.105 2.734-.295l.049.098-2.783 2.783-2.783-2.783zm8.734-9.705c-2.757 0-5-2.243-5-5s2.243-5 5-5 5 2.243 5 5-2.243 5-5 5zm8-6c.551 0 1 .449 1 1s-.449 1-1 1h-1v-2zm-23.182-8.12 2.595-1.112c1.23.793 2.68 1.232 4.192 1.232h10.395c1.654 0 3 1.346 3 3v1.11c-1.272-1.3-3.042-2.11-5-2.11-2.548 0-4.775 1.373-6 3.413-1.225-2.04-3.452-3.413-6-3.413-1.958 0-3.728.81-5 2.11v-1.473c0-1.201.714-2.283 1.818-2.757zm8.182 9.12c0 2.757-2.243 5-5 5s-5-2.243-5-5 2.243-5 5-5 5 2.243 5 5zm-14 0c0-.551.449-1 1-1h1v2h-1c-.551 0-1-.449-1-1zm4.541 5.391c1.212 1.004 2.766 1.609 4.459 1.609 2.548 0 4.775-1.373 6-3.413 1.225 2.04 3.452 3.413 6 3.413 1.693 0 3.247-.605 4.459-1.609-1.433 4.41-5.577 7.609-10.459 7.609s-9.026-3.199-10.459-7.609zm6.074 10.638 2.971 2.971h-7.101c.719-1.704 2.304-2.829 4.13-2.971zm25.386 22.971h-34.001v-2h34zm-13.001-4h-7v-2h7zm19-5c0 .551-.449 1-1 1h-44c-.551 0-1-.449-1-1v-9h32.184c.414 1.161 1.514 2 2.816 2h8.219l.568 2.272c.255 1.018 1.165 1.728 2.213 1.728zm12-10c0 .551-.449 1-1 1h-9.781l-.947 3.787c-.063.251-.482.251-.545 0l-.946-3.787h-9.781c-.551 0-1-.449-1-1v-10c0-.551.449-1 1-1h22c.551 0 1 .449 1 1z" fill="#000000" data-original="#000000" style=""/><path d="m25 44c-1.654 0-3 1.346-3 3s1.346 3 3 3 3-1.346 3-3-1.346-3-3-3zm0 4c-.551 0-1-.449-1-1s.449-1 1-1 1 .449 1 1-.449 1-1 1z" fill="#000000" data-original="#000000" style=""/><path d="m55 52c-3.309 0-6 2.691-6 6v1c0 1.654 1.346 3 3 3h6c1.654 0 3-1.346 3-3v-1c0-3.309-2.691-6-6-6zm4 7c0 .551-.449 1-1 1h-6c-.551 0-1-.449-1-1v-1c0-2.206 1.794-4 4-4s4 1.794 4 4z" fill="#000000" data-original="#000000" style=""/><path d="m54 34c0-1.103-.897-2-2-2h-2c-1.103 0-2 .897-2 2v1h-2.222c-.237-.569-.65-1.054-1.225-1.342l-2.764-1.382c-.362-.18-.767-.276-1.171-.276-1.444 0-2.618 1.174-2.618 2.618v2.764c0 1.444 1.174 2.618 2.618 2.618.404 0 .809-.096 1.171-.276l2.763-1.382c.576-.287.989-.773 1.226-1.342h2.222v1c0 1.103.897 2 2 2h2c1.103 0 2-.897 2-2v-1h4v-2h-4zm-10.342 2.553-2.764 1.382c-.39.195-.894-.117-.894-.553v-2.764c0-.341.277-.618.618-.618.095 0 .191.022.276.065l2.764 1.382c.211.106.342.317.342.553s-.131.447-.342.553zm6.342 1.447v-4h2l.001 4z" fill="#000000" data-original="#000000" style=""/></g></g></g></svg>
