<?xml version="1.0"?>
<svg xmlns="http://www.w3.org/2000/svg" xmlns:xlink="http://www.w3.org/1999/xlink" xmlns:svgjs="http://svgjs.com/svgjs" version="1.1" width="512" height="512" x="0" y="0" viewBox="0 0 62 62" style="enable-background:new 0 0 512 512" xml:space="preserve" class=""><g><g xmlns="http://www.w3.org/2000/svg"><g><path d="m33 11.843c-1.645-3.448-5.155-5.843-9.224-5.843h-11.534c-2.469 0-4.789-.961-6.535-2.707l-.862-.862-1.965 2.946c-1.884 2.826-2.88 6.115-2.88 9.513 0 2.193.413 4.336 1.227 6.369l.802 2.003c.288-.162.616-.262.971-.262h2v-1.921c0-1.251.776-2.37 1.947-2.809 0 0 4.942-1.853 4.942-1.853 1.263 1.081 2.862 1.745 4.576 1.845l9.712.571c1.585.094 2.823 1.407 2.823 2.996v1.171h2c.355 0 .683.1.972.262l1.028-2.57z" fill="#fb8312" data-original="#f0bc5e" style=""/></g><g><path d="m36 5h6v8h-6z" fill="#fb8312" data-original="#f0bc5e" style=""/></g><g><path d="m48 5h6v8h-6z" fill="#fb8312" data-original="#f0bc5e" style=""/></g><g><path d="m14 25c0-1.654-1.346-3-3-3s-3 1.346-3 3 1.346 3 3 3 3-1.346 3-3zm-3 1c-.552 0-1-.449-1-1s.448-1 1-1 1 .449 1 1-.448 1-1 1z" fill="#000000" data-original="#000000" style="" class=""/><path d="m23 22c-1.654 0-3 1.346-3 3s1.346 3 3 3 3-1.346 3-3-1.346-3-3-3zm0 4c-.552 0-1-.449-1-1s.448-1 1-1 1 .449 1 1-.448 1-1 1z" fill="#000000" data-original="#000000" style="" class=""/><path d="m12.303 32.332c.539 2.16 2.471 3.668 4.697 3.668s4.158-1.508 4.697-3.668l.584-2.332h-10.562zm7.412-.332c-.367 1.186-1.462 2-2.715 2s-2.348-.814-2.715-2z" fill="#000000" data-original="#000000" style="" class=""/><path d="m38 50c0 1.103.897 2 2 2h2c1.103 0 2-.897 2-2v-2h12v-2h-12v-2c0-1.103-.897-2-2-2h-2c-1.103 0-2 .897-2 2v2h-8v2h8zm2-6h2l.001 6h-2.001z" fill="#000000" data-original="#000000" style="" class=""/><path d="m38 30h2v2h-2z" fill="#000000" data-original="#000000" style="" class=""/><path d="m44 30h2v2h-2z" fill="#000000" data-original="#000000" style="" class=""/><path d="m50 30h2v2h-2z" fill="#000000" data-original="#000000" style="" class=""/><path d="m36 4h6v2h-6z" fill="#000000" data-original="#000000" style="" class=""/><path d="m36 8h6v2h-6z" fill="#000000" data-original="#000000" style="" class=""/><path d="m36 12h6v2h-6z" fill="#000000" data-original="#000000" style="" class=""/><path d="m48 4h6v2h-6z" fill="#000000" data-original="#000000" style="" class=""/><path d="m48 8h6v2h-6z" fill="#000000" data-original="#000000" style="" class=""/><path d="m48 12h6v2h-6z" fill="#000000" data-original="#000000" style="" class=""/><path d="m60 4h-2v-4h-9.764c-1.241 0-2.388.494-3.236 1.333-.848-.839-1.995-1.333-3.236-1.333h-9.764v22h9.764c1.241 0 2.388-.494 3.236-1.333.848.839 1.995 1.333 3.236 1.333h9.764v-16h2v18h-14v1c0 .551-.448 1-1 1s-1-.449-1-1v-1h-10.184c-.414-1.161-1.514-2-2.816-2h-1v-.171c0-2.115-1.654-3.869-3.766-3.993l-9.711-.571c-2.397-.142-4.555-1.563-5.629-3.712l-1.789.895c.281.563.62 1.087 1.007 1.567l-3.517 1.319c-1.552.582-2.595 2.087-2.595 3.745v.921h-1c-1.654 0-3 1.346-3 3s1.346 3 3 3h1.051c.242 3.152 1.603 5.993 3.698 8.118-3.264.593-5.749 3.45-5.749 6.882v8c0 3.86 3.141 7 7 7h19.22l.568 2.272c.254 1.018 1.164 1.728 2.212 1.728s1.958-.71 2.212-1.728l.568-2.272h19.22c3.859 0 7-3.14 7-7v-8c0-3.86-3.141-7-7-7h-26.641c2.032-2.112 3.353-4.904 3.59-8h1.051c1.302 0 2.402-.839 2.816-2h8.355c.413 1.164 1.525 2 2.829 2s2.416-.836 2.829-2h12.171c1.103 0 2-.897 2-2v-18c0-1.103-.897-2-2-2zm-16 14.744c-.474.78-1.312 1.256-2.236 1.256h-7.764v-18h7.764c.924 0 1.762.476 2.236 1.256zm12 1.256h-7.764c-.934 0-1.766-.499-2.236-1.294v-15.412c.47-.795 1.302-1.294 2.236-1.294h7.764zm-54 5c0-.551.448-1 1-1h1v2h-1c-.552 0-1-.449-1-1zm2 26v-8c0-2.757 2.243-5 5-5h1.104c.765.481 1.583.882 2.443 1.198l-.354 1.061c-3.156 1.45-5.326 4.557-5.574 8.042l-.485 6.785c-1.286-.906-2.134-2.396-2.134-4.086zm8.991-8.886 2.878 1.439-1.55 1.034-1.449-2.414c.04-.02.08-.04.121-.059zm8.018 0c.041.019.081.039.121.059l-1.449 2.414-1.55-1.034zm-4.009 3.088.788.525-.568 2.273h-.44l-.568-2.273zm-.117 4.798h.235l.75 6h-1.735zm2.132-.94.539-2.156.764.509 2.478-4.13c1.479 1.301 2.446 3.144 2.59 5.16l.54 7.557h-6.044zm.514-9.311.248.744-2.777 1.389-2.777-1.389.248-.744c.818.162 1.663.251 2.529.251s1.711-.089 2.529-.251zm-11.449 16.158.533-7.464c.144-2.015 1.112-3.859 2.59-5.16l2.478 4.13.764-.509.539 2.156-.867 6.94h-5.117c-.315 0-.621-.037-.92-.093zm49.92-12.907v8c0 2.757-2.243 5-5 5h-20.78l-.947 3.787c-.063.251-.482.251-.545 0l-.948-3.787h-1.85l-.55-7.7c-.248-3.484-2.418-6.591-5.574-8.042l-.354-1.061c.861-.315 1.678-.716 2.443-1.198h29.105c2.757.001 5 2.244 5 5.001zm-30-16c0 6.065-4.935 11-11 11s-11-4.935-11-11v-5.921c0-.829.521-1.582 1.298-1.873l4.415-1.656c1.345.998 2.971 1.609 4.693 1.71l9.711.571c1.056.064 1.883.94 1.883 1.998zm3-1h-1v-2h1c.552 0 1 .449 1 1s-.448 1-1 1z" fill="#000000" data-original="#000000" style="" class=""/></g></g></g></svg>
