<?xml version="1.0"?>
<svg xmlns="http://www.w3.org/2000/svg" xmlns:xlink="http://www.w3.org/1999/xlink" xmlns:svgjs="http://svgjs.com/svgjs" version="1.1" width="512" height="512" x="0" y="0" viewBox="0 0 512 512" style="enable-background:new 0 0 512 512" xml:space="preserve" class=""><g><g xmlns="http://www.w3.org/2000/svg"><g><g><path d="m445.9 247.7h-82.6v-82.6h82.6z" fill="#fb8312" data-original="#f0bc5e" style="" class=""/></g></g><g><g><path d="m445.9 346.8h-82.6v-82.6h82.6z" fill="#fb8312" data-original="#f0bc5e" style="" class=""/></g></g><g><path d="m33 462.5h16.5v16.5h-16.5z" fill="#000000" data-original="#000000" style="" class=""/><path d="m66.1 462.5h16.5v16.5h-16.5z" fill="#000000" data-original="#000000" style="" class=""/><path d="m99.1 462.5h16.5v16.5h-16.5z" fill="#000000" data-original="#000000" style="" class=""/><path d="m132.1 462.5h16.5v16.5h-16.5z" fill="#000000" data-original="#000000" style="" class=""/><path d="m165.2 462.5h16.5v16.5h-16.5z" fill="#000000" data-original="#000000" style="" class=""/><path d="m495.5 66.1h-99.1v-8.3c0-31.9-25.9-57.8-57.8-57.8s-57.8 25.9-57.8 57.8v8.3h-95.2c-18.7-10.8-40-16.5-61.7-16.5-68.3-.1-123.9 55.5-123.9 123.8 0 46.4 25.7 86.9 63.6 108.1-1.8-.4-3.8-.7-5.7-.7h-33c-13.8 0-24.9 11.1-24.9 24.7v99.1c0 13.7 11.1 24.8 24.8 24.8h33c6.4 0 12.1-2.5 16.5-6.4 4.4 4 10.1 6.4 16.5 6.4h16.5c10 0 18.5-6 22.5-14.5l41.5 11.8c6.1 1.8 12.5 2.6 18.9 2.6 12.1 0 24.1-3.2 34.6-9.3l6.5-3.8v22.9l22.4 59.7c2.9 7.8 10.5 13.1 18.9 13.1s16-5.3 18.9-13.1l1.3-3.4h202.8c9.1 0 16.5-7.4 16.5-16.5v-396.3c-.1-9.1-7.5-16.5-16.6-16.5zm-33 330.3h-49.5v49.5h-101.7l2.5-6.8v-27.8c2.6.9 5.4 1.5 8.3 1.5 13.7 0 24.8-11.1 24.8-24.8v-66.1c0-19.9-14.2-36.6-33-40.5v-58.4c0-13.7-11.1-24.8-24.8-24.8h-33c-13.7 0-24.8 11.1-24.8 24.8v65.4l-16.5 3.9v-176.7h52.9c17.2 20.4 42.8 33 71 33 28.1 0 53.8-12.6 71-33h52.9v280.8zm-11.7 16.5-21.4 21.4v-21.4zm-163.4 49.6h-29.8l-6.2-16.5h42.2zm7.1-83.2c1-.6 1.8-1.2 2.7-1.9v51.9h-16.5v-42.1zm19.3-80.5c9.6 3.4 16.5 12.5 16.5 23.3v66.1c0 4.6-3.7 8.3-8.3 8.3s-8.3-3.7-8.3-8.3v-89.4zm-16.5-67.6h-49.5v-8.2c0-4.6 3.7-8.3 8.3-8.3h33c4.6 0 8.3 3.7 8.3 8.3v8.2zm-49.6 16.5h49.5v16.5h-49.5zm0 33.1h16.5v42.4l-16.5 11zm33.1 0h16.5v35.5c-3.4-1.6-7.2-2.5-11.1-2.5-1.8 0-3.7.3-5.4.6zm-150.3 16.1c11.9-.6 23.5-2.8 34.7-6.7v13.7l-33 7.8v-6.1c-.1-3.1-.7-6-1.7-8.7zm-14.9-65.7v16c-14.3-1.6-27.4-7.3-38.1-15.8l11.3-11.3-11.7-11.7-11.3 11.3c-8.5-10.6-14.2-23.7-15.8-38h16v-16.5h-16c1.6-14.3 7.3-27.4 15.8-38.1l11.3 11.3 11.7-11.7-11.3-11.3c10.7-8.6 23.8-14.2 38.1-15.8v16h16.5v-16c11.9 1.3 23.1 5.4 33 12.1v123.5c-9.9 6.7-21.2 10.8-33 12.1v-16h-16.5zm66.1-148.6h68.1c1.7 5.8 4 11.3 6.7 16.5h-58.3v197l-16.5 3.9zm156.9 49.5c-32.2 0-60.4-20-71.4-49.5h142.8c-11 29.5-39.3 49.5-71.4 49.5zm8.2-66h-16.5v-8.3c0-4.6 3.7-8.3 8.3-8.3s8.3 3.7 8.3 8.3v8.3zm-49.5-8.3c0-22.8 18.5-41.3 41.3-41.3s41.3 18.5 41.3 41.3v8.3h-16.5v-8.3c0-13.7-11.1-24.8-24.8-24.8s-24.8 11.1-24.8 24.8v8.3h-16.5zm-280.8 115.6c0-59.2 48.2-107.4 107.4-107.4 14.9 0 29.6 3.1 43.1 9.1-1.1 2.2-1.9 4.8-1.9 7.5v9.9c-12.7-6.5-26.7-9.9-41.3-9.9-50.1 0-90.8 40.8-90.8 90.8s40.8 90.8 90.8 90.8c14.6 0 28.6-3.4 41.3-9.9v18c-13.1 5.5-26.9 8.4-41.3 8.4-59.1.1-107.3-48.1-107.3-107.3zm41.3 239.5h-33c-4.6 0-8.3-3.7-8.3-8.3v-99.1c0-4.6 3.7-8.3 8.3-8.3h33c4.6 0 8.3 3.7 8.3 8.3v99.1c0 4.6-3.7 8.3-8.3 8.3zm57.8-8.3c0 4.6-3.7 8.3-8.3 8.3h-16.5c-4.6 0-8.3-3.7-8.3-8.3v-99.1c0-4.6 3.7-8.3 8.3-8.3h16.5c4.6 0 8.3 3.7 8.3 8.3zm100.8 1.2c-12.2 7.1-27.1 9-40.6 5.1l-43.7-12.5v-69.8l99.1-23.3v38.6c-4.8 1.8-9.8 2.9-15 2.9h-18v16.5h18c11.5 0 22.5-3.4 32.1-9.7l32.5-21.7c4.7-3.1 11.5-1.4 14.1 3.9 1.5 3.1 2.4 6.5 2.4 10 0 7.9-4.2 15.3-11.1 19.3zm47.9-8.8v32.4h-16.5v-22.8zm4.8 96.1-5.3-14.1h17.5l-5.3 14.1c-1.1 2.9-5.8 2.9-6.9 0zm226.4-14.1h-196.6l6.2-16.5h119.5l54.4-54.4v-309h-58.3c2.7-5.2 5-10.7 6.7-16.5h68.1z" fill="#000000" data-original="#000000" style="" class=""/><path d="m346.8 99.1h16.5v16.5h-16.5z" fill="#000000" data-original="#000000" style="" class=""/><path d="m313.8 99.1h16.5v16.5h-16.5z" fill="#000000" data-original="#000000" style="" class=""/><path d="m231.2 165.2h115.6v16.5h-115.6z" fill="#000000" data-original="#000000" style="" class=""/><path d="m231.2 132.1h33v16.5h-33z" fill="#000000" data-original="#000000" style="" class=""/><path d="m393 198.2h23.4v16.5h-23.4z" transform="matrix(.707 -.707 .707 .707 -27.468 346.593)" fill="#000000" data-original="#000000" style="" class=""/><path d="m393 297.3h23.4v16.5h-23.4z" transform="matrix(.707 -.707 .707 .707 -97.54 375.617)" fill="#000000" data-original="#000000" style="" class=""/><path d="m148.6 173.4c0-7.3-3.2-13.8-8.2-18.3l13.2-31.9-15.3-6.3-13.2 31.9c-.4 0-.8-.1-1.3-.1-3.8 0-7.4.9-10.6 2.5l-12.7-12.7-11.7 11.7 12.7 12.7c-1.6 3.2-2.5 6.8-2.5 10.6 0 13.7 11.1 24.8 24.8 24.8s24.8-11.2 24.8-24.9zm-24.7 8.3c-4.6 0-8.3-3.7-8.3-8.3s3.7-8.3 8.3-8.3 8.3 3.7 8.3 8.3c-.1 4.6-3.8 8.3-8.3 8.3z" fill="#000000" data-original="#000000" style="" class=""/></g></g></g></svg>
