<?xml version="1.0"?>
<svg xmlns="http://www.w3.org/2000/svg" xmlns:xlink="http://www.w3.org/1999/xlink" xmlns:svgjs="http://svgjs.com/svgjs" version="1.1" width="512" height="512" x="0" y="0" viewBox="0 0 62 62" style="enable-background:new 0 0 512 512" xml:space="preserve" class=""><g><g xmlns="http://www.w3.org/2000/svg"><g><path d="m27.601 16.2-.268-.2h-.333v1h-20v-1h-.333l-.267.2c-1.076.806-1.984 1.794-2.702 2.932.759.284 1.302 1.01 1.302 1.868 0 1.105-.895 2-2 2-.278 0-.543-.057-.784-.16-.142.709-.216 1.435-.216 2.16v6.277c.295-.171.634-.277 1-.277h2v-1.969c0-1.227.747-2.33 1.886-2.785l2.376-.951-.002.001c.457 1.005 1.47 1.704 2.646 1.704 1.377 0 2.733-.278 3.989-.811l-.001.001c.522.502 1.231.81 2.012.81 2.018 0 3.99-.597 5.669-1.716l.425-.284 3.114 1.246c1.139.455 1.886 1.558 1.886 2.785v1.969h2c.366 0 .705.106 1 .277v-6.277c0-3.443-1.645-6.733-4.399-8.8z" fill="#fb8312" data-original="#f0bc5e" style=""/></g><g><path d="m12.303 40.332c.539 2.16 2.471 3.668 4.697 3.668s4.158-1.508 4.697-3.668l.584-2.332h-10.562zm7.412-.332c-.367 1.186-1.462 2-2.715 2s-2.348-.814-2.715-2z" fill="#000000" data-original="#000000" style="" class=""/><path d="m12 34h2v-1c0-1.654-1.346-3-3-3s-3 1.346-3 3v1h2v-1c0-.551.448-1 1-1s1 .449 1 1z" fill="#000000" data-original="#000000" style="" class=""/><path d="m23 30c-1.654 0-3 1.346-3 3v1h2v-1c0-.551.448-1 1-1s1 .449 1 1v1h2v-1c0-1.654-1.346-3-3-3z" fill="#000000" data-original="#000000" style="" class=""/><path d="m30 44h2v2h-2z" fill="#000000" data-original="#000000" style="" class=""/><path d="m34 44h2v2h-2z" fill="#000000" data-original="#000000" style="" class=""/><path d="m38 44h2v2h-2z" fill="#000000" data-original="#000000" style="" class=""/><path d="m62 19c0-10.477-8.523-19-19-19-6.171 0-11.914 2.984-15.483 8h-6.737l-.325-1.302c-.396-1.589-1.817-2.698-3.455-2.698s-3.059 1.109-3.455 2.698l-.325 1.302h-9.22c-1.103 0-2 .897-2 2v1 1 6.184c-1.161.414-2 1.514-2 2.816 0 1.654 1.346 3 3 3s3-1.346 3-3c0-1.302-.839-2.402-2-2.816v-4.184h2v4h22v-4h2c1.103 0 2-.897 2-2h3.079c-.599 1.942-.949 3.957-1.036 6h-4.565c.508.618.945 1.29 1.308 2h3.258c.087 2.043.438 4.058 1.036 6h-3.08v2h3.794c.857 2.099 1.994 4.086 3.422 5.872l1.582 1.977c-2.431-.314-4.752-1.15-6.837-2.462.017-.128.039-.255.039-.387 0-1.654-1.346-3-3-3h-1v-.969c0-1.645-.987-3.103-2.515-3.714l-3.603-1.44-.863.575c-1.519 1.012-3.288 1.548-5.114 1.548-1.051 0-1.905-.855-1.905-1.906 0-.821.523-1.548 1.304-1.808l1.013-.338-.633-1.897-1.013.338c-1.598.533-2.671 2.022-2.671 3.705 0 .559.123 1.089.335 1.57-.79.217-1.601.336-2.43.336-1.051 0-1.905-.855-1.905-1.906 0-.821.523-1.548 1.304-1.808l1.013-.338-.633-1.897-1.013.338c-1.598.533-2.671 2.022-2.671 3.705 0 .207.03.406.061.604l-1.546.619c-1.528.611-2.515 2.069-2.515 3.714v.969h-1c-1.654 0-3 1.346-3 3s1.346 3 3 3h1.051c.425 5.546 4.339 10.117 9.549 11.533-.229.225-.433.472-.618.735-.292-.166-.624-.268-.982-.268h-2c-1.103 0-2 .897-2 2v12h14.669.331 21.438c1.379 0 2.576-.935 2.91-2.272l4.569-18.274c.056-.22.083-.446.083-.673 0-1.533-1.248-2.781-2.781-2.781h-.865c-1.245 0-2.347.837-2.68 2.037l-4.434 15.963h-7.341c-.465-2.279-2.484-4-4.899-4h-6.152l-.258-1.545c-.204-1.223-.817-2.278-1.675-3.06 4.955-1.568 8.623-6.032 9.035-11.395h1.05c.795 0 1.515-.316 2.052-.823 2.989 1.843 6.405 2.823 9.948 2.823 10.477 0 19-8.523 19-19zm-60 14c0-.551.448-1 1-1h1v2h-1c-.552 0-1-.449-1-1zm10 27h-2v-10h2zm2 0v-2.474c.684.954 1.519 1.79 2.474 2.474zm30.438 0h-14.438v-2h15.72l-.311 1.242c-.112.446-.511.758-.971.758zm3.164-19.429c.092-.336.402-.571.752-.571h.865c.43 0 .781.35.781.781 0 .064-.008.129-.022.189l-3.758 15.03h-2.904zm-15.786 15.429h-1.816v-1.816c.847.302 1.514.969 1.816 1.816zm-3.816-2v6h-5-.331c-4.78 0-8.669-3.889-8.669-8.669 0-1.837 1.494-3.331 3.331-3.331 1.635 0 3.017 1.171 3.286 2.783l.331 1.991-1.781 2.671 1.664 1.109 1.704-2.554zm0-19c0 6.065-4.935 11-11 11s-11-4.935-11-11v-5.969c0-.823.493-1.552 1.257-1.857l1.618-.647c.716.891 1.801 1.473 3.03 1.473 1.307 0 2.582-.237 3.805-.679.626.428 1.382.679 2.195.679 2.218 0 4.365-.649 6.212-1.876l2.626 1.05c.764.305 1.257 1.034 1.257 1.857zm17.21.839 1.574-1.968c1.428-1.786 2.565-3.773 3.422-5.872h7.189c-2.636 4.203-7.049 7.169-12.185 7.84zm14.739-17.839h-7.992c-.087-2.043-.438-4.058-1.036-6h7.554c.839 1.849 1.35 3.871 1.474 6zm0 2c-.125 2.129-.635 4.151-1.475 6h-7.554c.599-1.942.949-3.957 1.036-6zm-2.553-10h-7.189c-.857-2.099-1.994-4.086-3.422-5.872l-1.575-1.967c5.136.671 9.549 3.637 12.186 7.839zm-9.349 0h-10.094c.744-1.644 1.689-3.201 2.826-4.622l2.221-2.777 2.222 2.776c1.136 1.422 2.081 2.978 2.825 4.623zm-32.563-2.817c.175-.697.798-1.183 1.516-1.183s1.341.486 1.516 1.183l.204.817h-3.44zm-12.484 14.817c-.552 0-1-.449-1-1s.448-1 1-1 1 .449 1 1-.448 1-1 1zm23-6h-18v-2h18zm-22-4v-1-1h26l.001 2zm28-2c0-1.09-.877-1.975-1.961-1.996 2.741-3.231 6.573-5.316 10.764-5.86l-1.588 1.984c-1.427 1.786-2.564 3.773-3.421 5.872zm5.168 2h11.664c.655 1.93 1.03 3.951 1.125 6h-13.914c.095-2.049.47-4.07 1.125-6zm-1.125 8h13.914c-.095 2.049-.47 4.07-1.125 6h-11.664c-.655-1.93-1.03-3.951-1.125-6zm1.91 8h10.095c-.744 1.644-1.689 3.201-2.826 4.622l-2.222 2.777-2.222-2.776c-1.136-1.422-2.081-2.978-2.825-4.623zm-6.953 6h-1v-2h1c.552 0 1 .449 1 1s-.448 1-1 1z" fill="#000000" data-original="#000000" style="" class=""/></g></g></g></svg>
