<?xml version="1.0"?>
<svg xmlns="http://www.w3.org/2000/svg" xmlns:xlink="http://www.w3.org/1999/xlink" xmlns:svgjs="http://svgjs.com/svgjs" version="1.1" width="512" height="512" x="0" y="0" viewBox="0 0 62 62" style="enable-background:new 0 0 512 512" xml:space="preserve" class=""><g><g xmlns="http://www.w3.org/2000/svg"><g><path d="m53 36h-2c-1.349 0-2.666.315-3.871.89.538.543.871 1.288.871 2.11v1.838c0 1.649-.203 3.298-.598 4.901.378-.784 1.002-1.441 1.809-1.845l2.211-1.105c.656 1.311 2.012 2.211 3.578 2.211 1.105 0 2 .895 2 2v2c0 2.209-1.791 4-4 4 2.849 0 5.229 1.987 5.842 4.65l.083-.035c1.868-.779 3.075-2.591 3.075-4.615v-8c0-4.963-4.038-9-9-9z" fill="#fb8312" data-original="#f0bc5e" style=""/></g><g><path d="m47 49v-1.528-.472c0 1.105-.895 2-2 2h-2c0 2.002-1.475 3.646-3.395 3.939l-.037.09c2.683.252 4.848 2.269 5.328 4.878l.209-.003c.515-2.79 2.956-4.904 5.895-4.904-2.209 0-4-1.791-4-4z" fill="#fb8312" data-original="#f0bc5e" style=""/></g><g><g><path d="m45 36h-9.978c-3.872 0-7.022 3.15-7.022 7.022 0 .757.121 1.504.36 2.221l.463 1.389.214-.001c.174-.928.985-1.631 1.963-1.631h2l2.608-2.608-.005-.008c.847 1.558 2.499 2.616 4.397 2.616h3 2c.962 0 1.763.679 1.955 1.584l.239-.001.189-.755c.41-1.631.617-3.311.617-4.99v-1.838c0-1.654-1.346-3-3-3z" fill="#fb8312" data-original="#f0bc5e" style=""/></g></g><g><path d="m21.521 18.923c-.167.045-.34.077-.521.077h-2c-.736 0-1.372-.402-1.719-.994-.04 0-.078-.006-.119-.006h-4.324c-5.976 0-10.838 4.862-10.838 10.838 0 1.316.128 2.637.38 3.927l.158.808h.505c.209-1.453 1.447-2.573 2.957-2.573h1v-2h16v2h1c1.51 0 2.748 1.12 2.957 2.572h.505l.158-.808c.252-1.29.38-2.61.38-3.927 0-4.424-2.669-8.232-6.479-9.914z" fill="#fb8312" data-original="#f0bc5e" style=""/></g><g><path d="m12 40h4c2.206 0 4-1.794 4-4h-2c0 1.103-.897 2-2 2h-4z" fill="#000000" data-original="#000000" style="" class=""/><path d="m34 22v-2c-2.206 0-4 1.794-4 4h2c0-1.103.897-2 2-2z" fill="#000000" data-original="#000000" style="" class=""/><circle cx="11" cy="33" r="1" fill="#000000" data-original="#000000" style="" class=""/><circle cx="19" cy="33" r="1" fill="#000000" data-original="#000000" style="" class=""/><path d="m39.485 10c-2.077-2.514-5.212-4-8.485-4h-5.051c-2.38-3.713-6.519-6-10.949-6-7.168 0-13 5.832-13 13v9c0 .829.508 1.542 1.229 1.845.342-.656.746-1.275 1.21-1.845h-.439v-2h2v.439c.284-.231.583-.443.89-.644.035-.023.07-.048.105-.071.325-.206.659-.397 1.005-.57v-6.154c0-3.859 3.14-7 7-7 1.495 0 2.927.477 4.119 1.347-.072.206-.119.423-.119.653v.368c0 .587.133 1.137.369 1.632h-6.369c-1.654 0-3 1.346-3 3s1.346 3 3 3h3.184c-.112.314-.184.648-.184 1 0 1.654 1.346 3 3 3h2c.6 0 1.158-.181 1.627-.486.479.282.944.585 1.373.935v-.449h2v2h-.449c.466.57.875 1.188 1.218 1.845.722-.302 1.231-1.015 1.231-1.845v-8.093c1.479 1.322 3.402 2.093 5.472 2.093h.528v-2h-.528c-2.377 0-4.515-1.321-5.578-3.447l-.276-.553h-5.246c-.314-.043-.601-.16-.831-.362-.349-.306-.541-.757-.541-1.27v-.368h10c2.714 0 5.301 1.258 7 3.364v14.636h-10.385c.176.646.299 1.313.352 2h34.033v-18zm-27.485 3c0-.552.449-1 1-1h8.923c.047.33.077.664.077 1v1h-9c-.551 0-1-.448-1-1zm9 5h-2c-.551 0-1-.448-1-1s.449-1 1-1h2c.551 0 1 .448 1 1s-.449 1-1 1zm3 0v-5c0-.335-.026-.668-.063-1h2.015c.03.332.048.666.048 1v5zm-18-5v5h-2v-5c0-6.065 4.935-11 11-11 3.294 0 6.388 1.505 8.46 4h-2.46c-.108 0-.212.015-.316.032-1.603-1.31-3.596-2.032-5.684-2.032-4.962 0-9 4.037-9 9zm42-1h2v14h-2zm-2 14h-2v-14h2zm-6-14h2v14h-2zm20 14h-8v-14h8z" fill="#000000" data-original="#000000" style="" class=""/><path d="m56.221 52.792c1.079-.918 1.779-2.268 1.779-3.792v-2c0-1.654-1.346-3-3-3s-3-1.346-3-3v-1h-2v1c0 .448.078.874.189 1.287l-1.425.713c-.786.393-1.427.975-1.898 1.669-.514-.412-1.157-.669-1.866-.669h-1-1-3c-2.206 0-4-1.794-4-4h-2c0 .767.15 1.498.413 2.173l-1.827 1.827h-1.586c-1.228 0-2.283.743-2.746 1.801-1.277-2.108-3.189-3.812-5.508-4.814.607-.872 1.016-1.889 1.174-2.987h.08c2.206 0 4-1.794 4-4s-1.794-4-4-4v-1c0-3.859-3.14-7-7-7h-4c-3.86 0-7 3.141-7 7v1c-2.206 0-4 1.794-4 4s1.794 4 4 4h.08c.158 1.098.567 2.115 1.174 2.987-4.334 1.874-7.254 6.203-7.254 11.013v4h2c0 2.206 1.794 4 4 4v2h18v-2c2.206 0 4-1.794 4-4h2v-4c0-.772-.083-1.53-.228-2.269.376.169.79.269 1.228.269h1.101c.227 1.115.841 2.08 1.678 2.792-2.242 1.168-3.779 3.51-3.779 6.208v3h30v-3c0-2.698-1.537-5.04-3.779-6.208zm-30.221-18.792c0 1.103-.897 2-2 2v-4c1.103 0 2 .897 2 2zm-18-5c0-1.627.793-3.061 2-3.974v3.974h2v-4.899c.323-.066.658-.101 1-.101h1v5h2v-5h1c.342 0 .677.035 1 .101v4.899h2v-3.974c1.207.914 2 2.348 2 3.974v8c0 2.757-2.243 5-5 5h-4c-2.757 0-5-2.243-5-5zm3.667 15.919-.182-1.089c.364.081.738.128 1.12.15zm3.114 3.081h.438l1.64 6.559-1.859 1.239-1.859-1.239zm.684-2h-.93l-.449-.673.914-.913.913.913zm1.929-2.02c.382-.021.757-.069 1.12-.15l-.182 1.089zm-13.394-9.98c0-1.103.897-2 2-2v4c-1.103 0-2-.897-2-2zm0 22h2v2c-1.103 0-2-.897-2-2zm20 2v-2h2c0 1.103-.897 2-2 2zm4-4h-4v-6h-2v12h-14v-12h-2v6h-4v-2c0-4.265 2.753-8.076 6.749-9.451.18.138.367.267.56.388l1.024 6.144 2.311-2.311.278.417-2.064 8.255 4.142 2.76 4.141-2.761-2.064-8.255.278-.417 2.311 2.311 1.024-6.144c.193-.121.38-.25.56-.388 3.997 1.376 6.75 5.187 6.75 9.452zm2-7c0-.552.449-1 1-1h1v2h-1c-.551 0-1-.448-1-1zm23.716 9h-3.432c-.153-.617-.244-1.252-.267-1.901.318-.063.646-.099.983-.099h2c.337 0 .665.036.983.099-.023.649-.113 1.284-.267 1.901zm-.748 2c-.272.524-.596 1.023-.968 1.492-.372-.469-.696-.967-.968-1.492zm-3.31-13.211 1.429-.714c.916 1.163 2.321 1.925 3.913 1.925.551 0 1 .448 1 1v2c0 1.654-1.346 3-3 3h-2c-1.654 0-3-1.346-3-3v-1.528c0-1.144.635-2.171 1.658-2.683zm-4.658 1.211c.551 0 1 .448 1 1s-.449 1-1 1h-1v-2zm-11 3v-3.586l1.48-1.48c1.101 1.263 2.717 2.066 4.52 2.066h2v3c0 1.654-1.346 3-3 3h-2c-1.654 0-3-1.346-3-3zm3.618 9h.764l1 2h-2.764zm.764-2h-.764l-.982-1.963c.123-.009.24-.037.364-.037h2c.124 0 .241.028.363.037zm-6.382 3c0-1.915 1.095-3.563 2.681-4.403l1.201 2.403-1.5 3h-2.382zm12 1h-2.382l-1.5-3 1.201-2.403c1.586.84 2.681 2.488 2.681 4.403zm-1.786-7.203c.84-.712 1.456-1.679 1.684-2.797h1.102c.382 0 .744-.079 1.08-.209.193 1.203.815 2.251 1.706 3.007-1.149.598-2.119 1.494-2.786 2.6-.667-1.106-1.636-2.002-2.786-2.601zm3.786 6.203c0-1.659.821-3.121 2.068-4.031.193 1.812.814 3.53 1.82 5.031h-3.888zm12 1h-3.889c1.006-1.501 1.627-3.219 1.82-5.031 1.248.91 2.069 2.372 2.069 4.031z" fill="#000000" data-original="#000000" style="" class=""/></g></g></g></svg>
